<svg xmlns="http://www.w3.org/2000/svg" width="400" height="62"><path fill="none" d="M-.002 0h399.998v61.998H-.002V0z"/><path fill-rule="evenodd" fill="#1D1D1F" d="M258.974 27.546h5.917c5.778 0 9.701-3.397 9.701-8.124 0-4.728-3.047-7.809-9-7.809-5.603 0-9.666 2.976-10.05 8.019h-7.354c.63-8.825 7.528-14.463 17.404-14.463 10.295 0 16.634 5.638 16.634 13.167 0 6.339-4.447 10.576-10.646 11.872v.175c7.424.665 12.397 5.182 12.397 12.257 0 8.894-7.774 14.953-18.315 14.953-10.821 0-18.07-5.988-18.56-14.674h7.529c.385 4.938 4.692 8.125 11.031 8.125 6.163 0 10.296-3.502 10.331-8.404.034-5.779-4.133-9-10.892-9h-6.127v-6.094zM1.598 10.072c0-2.416 1.961-4.343 4.378-4.343 2.416 0 4.377 1.927 4.377 4.343 0 2.381-1.961 4.342-4.377 4.342-2.417 0-4.378-1.961-4.378-4.342zm.596 9.735h7.563v36.84H2.194v-36.84zm35.16-13.693c9.806 0 16.634 6.759 16.634 16.599 0 9.876-6.968 16.67-16.879 16.67H26.253v17.264h-7.844V6.114h18.945zM26.253 32.799h9c6.829 0 10.716-3.677 10.716-10.05 0-6.373-3.887-10.016-10.681-10.016h-9.035v20.066zM59.366 6.114h7.494v19.857h.175c2.031-4.308 6.059-6.794 11.662-6.794 8.089 0 12.921 5.393 12.921 13.727v23.743h-7.599V34.375c0-5.428-2.731-8.685-8.054-8.685-5.603 0-9.035 3.852-9.035 9.666v21.291h-7.564V6.114zm37.537 32.113c0-11.836 6.968-19.085 17.474-19.085s17.474 7.249 17.474 19.085c0 11.871-6.933 19.121-17.474 19.121s-17.474-7.25-17.474-19.121zm27.244 0c0-8.159-3.852-12.852-9.77-12.852-5.918 0-9.771 4.693-9.771 12.852 0 8.195 3.853 12.887 9.771 12.887 5.953 0 9.77-4.692 9.77-12.887zm13.341-18.42h7.214v6.164h.175c1.996-4.203 5.919-6.794 11.592-6.794 8.124 0 12.782 5.183 12.782 13.622v23.848h-7.6V34.27c0-5.533-2.591-8.58-7.844-8.58-5.323 0-8.754 3.782-8.754 9.491v21.466h-7.565v-36.84zm70.28 26.019c-1.051 6.724-7.424 11.522-15.864 11.522-10.821 0-17.369-7.319-17.369-18.946 0-11.556 6.654-19.26 17.054-19.26 10.226 0 16.599 7.214 16.599 18.385v2.591h-26.019v.456c0 6.408 3.852 10.645 9.91 10.645 4.308 0 7.494-2.171 8.51-5.393h7.179zM182.204 34.83h18.42c-.175-5.637-3.747-9.595-9.035-9.595s-9 4.027-9.385 9.595zM320.161 6.114c9.805 0 16.634 6.759 16.634 16.599 0 9.876-6.969 16.67-16.879 16.67H309.06v17.264h-7.844V6.114h18.945zM309.06 32.799h9c6.829 0 10.715-3.677 10.715-10.05 0-6.373-3.886-10.016-10.68-10.016h-9.035v20.066zm33.693-12.992h7.214v6.268h.175c1.226-4.307 4.517-6.863 8.86-6.863 1.086 0 2.031.175 2.591.28v7.039c-.595-.246-1.926-.421-3.397-.421-4.867 0-7.878 3.258-7.878 8.475v22.062h-7.565v-36.84zm20.314 18.42c0-11.836 6.969-19.085 17.475-19.085 10.505 0 17.474 7.249 17.474 19.085 0 11.871-6.934 19.121-17.474 19.121-10.541 0-17.475-7.25-17.475-19.121zm27.245 0c0-8.159-3.853-12.852-9.77-12.852-5.919 0-9.771 4.693-9.771 12.852 0 8.195 3.852 12.887 9.771 12.887 5.952 0 9.77-4.692 9.77-12.887zM231.668 6.146l-10.342 7.157v7.717l10.313-7.328h.099v42.955h7.587V6.146h-7.657z"/></svg>