<svg xmlns="http://www.w3.org/2000/svg" width="284" height="62"><path fill="none" d="M.98 0H284v62.005H.98V0z"/><path fill-rule="evenodd" fill="#1D1D1F" d="M258.534 27.99h5.9c5.761 0 9.671-3.386 9.671-8.1 0-4.713-3.037-7.785-8.972-7.785-5.586 0-9.636 2.968-10.02 7.995h-7.332c.629-8.798 7.506-14.419 17.352-14.419 10.264 0 16.584 5.621 16.584 13.127 0 6.32-4.434 10.544-10.614 11.836v.174c7.401.663 12.359 5.167 12.359 12.22 0 8.868-7.75 14.908-18.259 14.908-10.789 0-18.016-5.97-18.504-14.629h7.506c.384 4.923 4.678 8.1 10.998 8.1 6.144 0 10.264-3.491 10.299-8.379.034-5.761-4.12-8.973-10.858-8.973h-6.11V27.99zM1.938 10.569c0-2.409 1.954-4.33 4.363-4.33 2.41 0 4.365 1.921 4.365 4.33 0 2.374-1.955 4.328-4.365 4.328-2.409 0-4.363-1.954-4.363-4.328zm.593 9.705h7.541v36.729H2.531V20.274zM37.585 6.623c9.776 0 16.583 6.738 16.583 16.549 0 9.845-6.947 16.619-16.827 16.619H26.518v17.212h-7.821V6.623h18.888zM26.518 33.227h8.972c6.809 0 10.683-3.666 10.683-10.02 0-6.354-3.874-9.985-10.648-9.985h-9.007v20.005zM59.53 6.623h7.472v19.796h.174c2.025-4.294 6.04-6.773 11.626-6.773 8.065 0 12.883 5.376 12.883 13.686v23.671h-7.576V34.798c0-5.411-2.723-8.658-8.03-8.658-5.586 0-9.008 3.84-9.008 9.636v21.227H59.53V6.623zm37.423 32.015c0-11.8 6.948-19.027 17.422-19.027s17.421 7.227 17.421 19.027c0 11.836-6.912 19.063-17.421 19.063s-17.422-7.227-17.422-19.063zm27.162 0c0-8.134-3.84-12.812-9.74-12.812-5.901 0-9.741 4.678-9.741 12.812 0 8.17 3.84 12.849 9.741 12.849 5.935 0 9.74-4.679 9.74-12.849zm13.301-18.364h7.192v6.145h.175c1.99-4.189 5.9-6.773 11.556-6.773 8.1 0 12.744 5.167 12.744 13.581v23.776h-7.577V34.694c0-5.517-2.583-8.554-7.821-8.554-5.306 0-8.727 3.77-8.727 9.461v21.402h-7.542V20.274zm70.067 25.94c-1.047 6.704-7.402 11.487-15.816 11.487-10.788 0-17.316-7.296-17.316-18.888 0-11.521 6.633-19.202 17.003-19.202 10.194 0 16.548 7.192 16.548 18.329v2.584h-25.94v.454c0 6.389 3.84 10.613 9.88 10.613 4.294 0 7.471-2.164 8.484-5.377h7.157zm-25.487-10.962h18.365c-.175-5.621-3.736-9.566-9.007-9.566-5.273 0-8.973 4.015-9.358 9.566zm49.315-28.597L221 13.789v7.694l10.282-7.305h.098v42.825h7.565V6.655h-7.634z"/></svg>