<svg xmlns="http://www.w3.org/2000/svg" width="298" height="62"><path fill="none" d="M.509-.015h297.498v62.017H.509V-.015z"/><path fill-rule="evenodd" fill="#1D1D1F" d="M9.762 8.349c0-2.501 2.029-4.494 4.531-4.494a4.47 4.47 0 0 1 4.495 4.494 4.494 4.494 0 0 1-4.495 4.495c-2.502 0-4.531-2.03-4.531-4.495zm.616 10.085h7.829v38.134h-7.829V18.434zM46.774 4.26c10.15 0 17.218 6.997 17.218 17.183 0 10.222-7.213 17.254-17.472 17.254H35.283v17.871h-8.12V4.26h19.611zM35.283 31.882h9.316c7.069 0 11.092-3.805 11.092-10.403 0-6.597-4.023-10.367-11.056-10.367h-9.352v20.77zM69.559 4.26h7.757v20.554h.182c2.102-4.459 6.271-7.032 12.071-7.032 8.373 0 13.375 5.582 13.375 14.209v24.577h-7.866V33.514c0-5.619-2.827-8.99-8.337-8.99-5.8 0-9.353 3.987-9.353 10.005v22.039h-7.829V4.26zm38.856 33.241c0-12.252 7.213-19.756 18.088-19.756s18.088 7.504 18.088 19.756c0 12.289-7.177 19.792-18.088 19.792-10.911 0-18.088-7.503-18.088-19.792zm28.201 0c0-8.446-3.987-13.303-10.113-13.303-6.126 0-10.114 4.857-10.114 13.303 0 8.483 3.988 13.34 10.114 13.34 6.162 0 10.113-4.857 10.113-13.34zm13.736-19.067h7.468v6.38h.181c2.066-4.35 6.126-7.032 11.999-7.032 8.409 0 13.231 5.364 13.231 14.1v24.686h-7.867V33.405c0-5.727-2.682-8.881-8.12-8.881-5.509 0-9.061 3.915-9.061 9.824v22.22h-7.831V18.434zm72.823 26.933c-1.088 6.96-7.685 11.926-16.421 11.926-11.201 0-17.979-7.575-17.979-19.611 0-11.962 6.887-19.937 17.653-19.937 10.585 0 17.182 7.468 17.182 19.031v2.683h-26.933v.471c0 6.633 3.987 11.02 10.258 11.02 4.459 0 7.758-2.248 8.809-5.583h7.431zm-26.462-11.382h19.067c-.181-5.836-3.879-9.932-9.352-9.932-5.474 0-9.316 4.168-9.715 9.932zm55.303 2.445c.299 1.909 2.224 3.044 4.81 3.044 2.54 0 4.275-1.23 4.275-2.902 0-1.498-1.072-2.35-3.928-2.934l-2.397-.473c-4.543-.899-6.767-3.076-6.767-6.467 0-4.164 3.629-6.925 8.692-6.925 5.314 0 8.659 2.777 8.738 6.956h-4.496c-.157-1.939-1.845-3.107-4.242-3.107-2.351 0-3.928 1.104-3.928 2.776 0 1.404 1.103 2.272 3.785 2.808l2.414.489c4.811.962 6.908 2.902 6.908 6.356 0 4.449-3.486 7.256-9.179 7.256-5.427 0-9.039-2.587-9.181-6.877h4.496zm32.237 6.499h-15.08V20.168h15.08v3.928h-10.316v5.488h9.731v3.66h-9.731v5.741h10.316v3.944zm-7.799-36.145l1.934.005c.516.001 1.034.007 1.569.023.964.025 2.1.077 3.217.279a9.74 9.74 0 0 1 2.764.908 9.091 9.091 0 0 1 3.998 4.008c.422.825.719 1.729.903 2.743.202 1.13.255 2.317.279 3.229.015.522.019 1.048.022 1.552l.005 22.102-.005 1.941a76.45 76.45 0 0 1-.022 1.577c-.024.905-.078 2.088-.277 3.205-.187 1.042-.476 1.922-.91 2.773a9.15 9.15 0 0 1-3.998 3.996 9.787 9.787 0 0 1-2.759.905c-1.124.2-2.257.253-3.23.279-.527.015-1.05.02-1.552.024l-1.936.004-22.087-.004a71.29 71.29 0 0 1-1.588-.025c-.961-.025-2.094-.078-3.212-.277-1.024-.184-1.929-.48-2.76-.903a9.187 9.187 0 0 1-2.32-1.683 9.187 9.187 0 0 1-1.685-2.319c-.431-.846-.72-1.726-.907-2.758-.201-1.132-.254-2.316-.278-3.228-.014-.506-.019-1.019-.025-1.559l-.002-22.1.002-1.922c.005-.539.01-1.061.025-1.59.024-.903.077-2.085.277-3.204.185-1.027.482-1.934.901-2.759a9.267 9.267 0 0 1 1.689-2.328 9.183 9.183 0 0 1 2.316-1.682 9.86 9.86 0 0 1 2.771-.907c1.108-.2 2.242-.252 3.22-.278a57.85 57.85 0 0 1 1.545-.022l22.116-.005m.001-4.811l-22.118.004c-.558.002-1.119.008-1.684.025-1.153.03-2.519.097-3.932.351a14.573 14.573 0 0 0-4.102 1.356 13.953 13.953 0 0 0-6.105 6.104 14.638 14.638 0 0 0-1.353 4.098c-.256 1.433-.323 2.856-.352 3.931a93.087 93.087 0 0 0-.026 1.69l-.003 1.943.003 22.13c.005.558.011 1.116.026 1.668.029 1.08.096 2.503.352 3.939.27 1.497.712 2.835 1.356 4.099a13.972 13.972 0 0 0 6.105 6.103c1.262.641 2.604 1.084 4.096 1.353 1.418.253 2.785.321 3.937.351.56.016 1.118.022 1.679.026l22.121.004 1.948-.004c.561-.004 1.119-.01 1.681-.026 1.15-.03 2.516-.098 3.935-.351 1.496-.269 2.834-.712 4.095-1.353a13.967 13.967 0 0 0 6.104-6.102c.643-1.259 1.088-2.599 1.359-4.103.255-1.433.322-2.856.351-3.93a73.17 73.17 0 0 0 .023-1.681l.006-1.951-.006-22.117a72.422 72.422 0 0 0-.023-1.683c-.029-1.08-.096-2.503-.351-3.94-.274-1.502-.719-2.842-1.357-4.091a13.9 13.9 0 0 0-6.102-6.106c-1.262-.645-2.606-1.089-4.096-1.355-1.419-.256-2.785-.323-3.94-.353a63.206 63.206 0 0 0-1.682-.025l-1.945-.004z"/></svg>